<?xml version="1.0" standalone="no"?>
<!DOCTYPE svg PUBLIC "-//W3C//DTD SVG 20010904//EN"
 "http://www.w3.org/TR/2001/REC-SVG-20010904/DTD/svg10.dtd">
<svg version="1.0" xmlns="http://www.w3.org/2000/svg"
 width="435.000000pt" height="274.000000pt" viewBox="0 0 435.000000 274.000000"
 preserveAspectRatio="xMidYMid meet">

<g transform="translate(0.000000,274.000000) scale(0.100000,-0.100000)"
fill="#000000" stroke="none">
<path d="M0 2319 c0 -333 3 -419 13 -413 6 5 106 71 222 148 116 76 237 152
270 167 127 58 359 106 630 130 l140 12 110 73 c104 69 330 185 385 198 l25 6
-25 -11 c-187 -87 -246 -117 -307 -155 -64 -40 -73 -49 -73 -75 0 -16 2 -29 4
-29 2 0 55 13 117 30 63 16 123 30 134 29 11 0 -31 -13 -94 -29 -217 -56 -371
-127 -561 -259 l-125 -88 -140 -6 c-77 -3 -194 -15 -259 -27 -66 -11 -121 -18
-123 -16 -5 5 163 36 195 36 12 0 22 6 22 13 0 17 -40 140 -49 149 -4 4 -24
-2 -46 -13 -77 -41 -405 -261 -400 -268 2 -4 -11 -15 -30 -24 l-35 -17 0 -940
0 -940 2175 0 2175 0 0 1131 0 1131 -22 -15 c-13 -8 -117 -77 -233 -153 -115
-76 -225 -143 -245 -150 -48 -17 -146 -28 -153 -18 -3 5 103 78 235 162 176
111 248 152 271 152 17 0 57 7 89 16 l58 17 0 233 0 233 -2175 1 -2175 0 0
-421z m2163 404 c-7 -2 -21 -2 -30 0 -10 3 -4 5 12 5 17 0 24 -2 18 -5z m510
0 c-7 -2 -21 -2 -30 0 -10 3 -4 5 12 5 17 0 24 -2 18 -5z m-580 -10 c-7 -2
-19 -2 -25 0 -7 3 -2 5 12 5 14 0 19 -2 13 -5z m640 0 c-7 -2 -19 -2 -25 0 -7
3 -2 5 12 5 14 0 19 -2 13 -5z m-696 -9 c-3 -3 -12 -4 -19 -1 -8 3 -5 6 6 6
11 1 17 -2 13 -5z m756 -1 c-7 -2 -19 -2 -25 0 -7 3 -2 5 12 5 14 0 19 -2 13
-5z m-838 -19 c-27 -7 -54 -13 -60 -13 -17 2 69 27 90 27 11 0 -2 -6 -30 -14z
m882 10 c-3 -3 -12 -4 -19 -1 -8 3 -5 6 6 6 11 1 17 -2 13 -5z m50 -10 c-3 -3
-12 -4 -19 -1 -8 3 -5 6 6 6 11 1 17 -2 13 -5z m40 -10 c-3 -3 -12 -4 -19 -1
-8 3 -5 6 6 6 11 1 17 -2 13 -5z m40 -10 c-3 -3 -12 -4 -19 -1 -8 3 -5 6 6 6
11 1 17 -2 13 -5z m70 -20 c-3 -3 -12 -4 -19 -1 -8 3 -5 6 6 6 11 1 17 -2 13
-5z m243 -84 c8 -5 11 -10 5 -10 -5 0 -17 5 -25 10 -8 5 -10 10 -5 10 6 0 17
-5 25 -10z m50 -20 c8 -5 11 -10 5 -10 -5 0 -17 5 -25 10 -8 5 -10 10 -5 10 6
0 17 -5 25 -10z m70 -30 c8 -5 11 -10 5 -10 -5 0 -17 5 -25 10 -8 5 -10 10 -5
10 6 0 17 -5 25 -10z m140 -65 c36 -19 61 -34 55 -34 -5 0 -39 15 -75 34 -36
19 -60 34 -55 34 6 0 39 -15 75 -34z m-1587 8 c-13 -2 -35 -2 -50 0 -16 2 -5
4 22 4 28 0 40 -2 28 -4z m-140 -10 c-13 -2 -35 -2 -50 0 -16 2 -5 4 22 4 28
0 40 -2 28 -4z m280 0 c-13 -2 -33 -2 -45 0 -13 2 -3 4 22 4 25 0 35 -2 23 -4z
m-375 -10 c-10 -2 -26 -2 -35 0 -10 3 -2 5 17 5 19 0 27 -2 18 -5z m455 0 c-7
-2 -21 -2 -30 0 -10 3 -4 5 12 5 17 0 24 -2 18 -5z m50 -10 c-7 -2 -19 -2 -25
0 -7 3 -2 5 12 5 14 0 19 -2 13 -5z m54 -9 c-3 -3 -12 -4 -19 -1 -8 3 -5 6 6
6 11 1 17 -2 13 -5z m40 -10 c-3 -3 -12 -4 -19 -1 -8 3 -5 6 6 6 11 1 17 -2
13 -5z m58 -14 c13 -5 14 -9 5 -9 -8 0 -24 4 -35 9 -13 5 -14 9 -5 9 8 0 24
-4 35 -9z m175 -62 c10 -6 7 -7 -10 -2 -14 3 -32 11 -40 16 -10 6 -7 7 10 2
14 -3 32 -11 40 -16z m1180 7 c0 -2 -10 -9 -22 -15 -22 -11 -22 -10 -4 4 21
17 26 19 26 11z m-95 -21 c-26 -20 -55 -36 -55 -30 0 5 63 46 70 46 3 -1 -4
-8 -15 -16z m175 -3 c0 -6 -4 -12 -8 -15 -5 -3 -9 1 -9 9 0 8 4 15 9 15 4 0 8
-4 8 -9z m-149 -20 c-31 -23 -90 -57 -76 -44 13 14 88 63 95 63 3 0 -6 -9 -19
-19z m-1001 -1 c8 -5 11 -10 5 -10 -5 0 -17 5 -25 10 -8 5 -10 10 -5 10 6 0
17 -5 25 -10z m1105 -16 c-26 -20 -55 -36 -55 -30 0 5 63 46 70 46 3 -1 -4 -8
-15 -16z m96 9 c-14 -3 -36 -12 -50 -20 l-26 -15 25 21 c14 11 36 20 50 19
l25 -1 -24 -4z m50 -32 c-31 -23 -90 -57 -76 -44 13 14 88 63 95 63 3 0 -6 -9
-19 -19z m-386 -7 c-26 -20 -55 -36 -55 -30 0 5 63 46 70 46 3 -1 -4 -8 -15
-16z m-735 -4 c8 -5 11 -10 5 -10 -5 0 -17 5 -25 10 -8 5 -10 10 -5 10 6 0 17
-5 25 -10z m971 -9 c-31 -23 -90 -57 -76 -44 13 14 88 63 95 63 3 0 -6 -9 -19
-19z m221 12 c-40 -8 -475 -291 -455 -296 14 -4 12 -5 -5 -6 -13 0 -22 4 -20
9 7 21 453 298 478 298 24 -1 25 -1 2 -5z m-431 -22 c-31 -23 -90 -57 -76 -44
13 14 88 63 95 63 3 0 -6 -9 -19 -19z m539 12 c0 -12 -470 -311 -470 -300 0 3
102 69 227 148 221 140 226 144 192 150 -34 6 -34 6 9 8 23 0 42 -2 42 -6z
m-1250 -13 c8 -5 11 -10 5 -10 -5 0 -17 5 -25 10 -8 5 -10 10 -5 10 6 0 17 -5
25 -10z m811 -19 c-31 -23 -90 -57 -76 -44 13 14 88 63 95 63 3 0 -6 -9 -19
-19z m-761 -1 c8 -5 11 -10 5 -10 -5 0 -17 5 -25 10 -8 5 -10 10 -5 10 6 0 17
-5 25 -10z m911 -19 c-31 -23 -90 -57 -76 -44 13 14 88 63 95 63 3 0 -6 -9
-19 -19z m-861 -1 c8 -5 11 -10 5 -10 -5 0 -17 5 -25 10 -8 5 -10 10 -5 10 6
0 17 -5 25 -10z m475 -6 c-26 -20 -55 -36 -55 -30 0 5 63 46 70 46 3 -1 -4 -8
-15 -16z m255 2 c0 -4 -35 -27 -214 -141 -43 -28 -55 -39 -45 -46 8 -5 10 -9
4 -9 -5 0 -16 4 -23 8 -9 6 33 38 130 100 149 95 148 95 148 88z m-255 -42
c-26 -20 -55 -36 -55 -30 0 5 63 46 70 46 3 -1 -4 -8 -15 -16z m126 -3 c-31
-23 -90 -57 -76 -44 13 14 88 63 95 63 3 0 -6 -9 -19 -19z m-481 -1 c8 -5 11
-10 5 -10 -5 0 -17 5 -25 10 -8 5 -10 10 -5 10 6 0 17 -5 25 -10z m631 -19
c-31 -23 -90 -57 -76 -44 13 14 88 63 95 63 3 0 -6 -9 -19 -19z m-581 -1 c8
-5 11 -10 5 -10 -5 0 -17 5 -25 10 -8 5 -10 10 -5 10 6 0 17 -5 25 -10z m195
-6 c-26 -20 -55 -36 -55 -30 0 5 63 46 70 46 3 -1 -4 -8 -15 -16z m-145 -14
c8 -5 11 -10 5 -10 -5 0 -17 5 -25 10 -8 5 -10 10 -5 10 6 0 17 -5 25 -10z
m145 -26 c-11 -8 -19 -20 -17 -25 1 -5 -2 -9 -8 -9 -17 0 -11 18 12 34 29 21
39 20 13 0z m145 12 c0 -11 -101 -67 -112 -63 -9 4 -9 6 2 6 8 1 35 15 60 31
46 31 50 33 50 26z m150 -20 c0 -2 -29 -23 -64 -46 -43 -28 -72 -40 -88 -37
-22 4 -22 4 2 6 14 0 52 19 85 41 61 41 65 43 65 36z m-3290 -66 c-34 -11 -60
-11 -35 0 11 5 29 8 40 8 16 0 15 -2 -5 -8z m-90 -25 c-19 -7 -42 -13 -50 -13
-8 0 1 6 20 13 19 7 42 13 50 13 8 0 -1 -6 -20 -13z m-80 -24 c-8 -5 -26 -11
-40 -15 -21 -5 -20 -3 5 9 32 15 60 20 35 6z m3453 -8 c-7 -2 -21 -2 -30 0
-10 3 -4 5 12 5 17 0 24 -2 18 -5z m-3361 -368 l3 -95 70 61 70 61 -70 -66
c-38 -36 -73 -66 -77 -66 -4 0 -8 42 -8 94 0 90 -1 95 -22 99 -20 4 -19 4 4 6
l27 1 3 -95z m265 89 c-3 -3 -12 -4 -19 -1 -8 3 -5 6 6 6 11 1 17 -2 13 -5z
m1730 0 c-3 -3 -12 -4 -19 -1 -8 3 -5 6 6 6 11 1 17 -2 13 -5z m676 -1 c-7 -2
-19 -2 -25 0 -7 3 -2 5 12 5 14 0 19 -2 13 -5z m394 -15 c-3 -8 -6 -5 -6 6 -1
11 2 17 5 13 3 -3 4 -12 1 -19z m188 8 c-35 -15 -60 -41 -74 -76 -8 -20 -10
-21 -10 -6 -1 24 71 96 95 96 13 -1 10 -5 -11 -14z m62 -138 c-2 -29 -3 -6 -3
52 0 58 1 81 3 53 2 -29 2 -77 0 -105z m407 138 c-17 -8 -40 -26 -52 -41 -12
-15 -22 -23 -22 -17 0 16 69 72 88 72 10 -1 4 -6 -14 -14z m63 -308 c-1 -62
-3 -14 -3 107 0 121 2 172 3 113 2 -59 2 -158 0 -220z m-3848 309 c-2 -1 -13
-9 -24 -17 -19 -14 -19 -14 -6 3 7 9 18 17 24 17 6 0 8 -1 6 -3z m291 -1 c0
-2 -7 -7 -16 -10 -8 -3 -12 -2 -9 4 6 10 25 14 25 6z m516 -17 c-15 -11 -36
-38 -46 -60 -11 -21 -23 -39 -25 -39 -3 0 2 15 11 33 19 37 63 87 77 87 5 0
-2 -9 -17 -21z m474 17 c0 -2 -12 -11 -27 -20 l-28 -17 24 20 c23 21 31 25 31
17z m729 0 c-2 -2 -15 -9 -29 -15 -24 -11 -24 -11 -6 3 16 13 49 24 35 12z
m680 1 c-16 -12 -79 -45 -79 -42 0 7 63 45 74 45 5 0 7 -1 5 -3z m-1704 -27
c10 -11 16 -20 13 -20 -3 0 -13 9 -23 20 -10 11 -16 20 -13 20 3 0 13 -9 23
-20z m-735 7 c0 -2 -10 -12 -22 -23 l-23 -19 19 23 c18 21 26 27 26 19z m220
0 c0 -2 -33 -31 -72 -66 l-73 -63 70 66 c65 62 75 70 75 63z m1341 -35 c-13
-24 -59 -62 -75 -62 -6 0 4 9 22 20 18 11 38 31 44 45 6 14 13 23 15 21 3 -2
0 -13 -6 -24z m108 -9 c-18 -21 -37 -42 -41 -47 -5 -6 -8 -7 -8 -3 0 9 70 87
78 87 3 0 -10 -17 -29 -37z m-1981 7 c-7 -10 -14 -17 -17 -15 -4 4 18 35 25
35 2 0 -1 -9 -8 -20z m2642 -20 c-12 -16 -24 -30 -26 -30 -3 0 4 14 16 30 12
17 24 30 26 30 3 0 -4 -13 -16 -30z m502 -10 c-18 -17 -38 -30 -45 -30 -6 0 2
9 19 19 18 11 35 24 38 30 4 6 10 11 14 11 4 0 -8 -14 -26 -30z m-642 16 c0
-2 -8 -10 -17 -17 -16 -13 -17 -12 -4 4 13 16 21 21 21 13z m-1390 -66 c17
-33 28 -60 25 -60 -2 0 -18 27 -35 60 -17 33 -28 60 -25 60 2 0 18 -27 35 -60z
m2657 38 c-3 -8 -6 -5 -6 6 -1 11 2 17 5 13 3 -3 4 -12 1 -19z m-3722 -418
l65 0 0 63 c0 61 1 64 42 102 l43 40 -37 -40 c-36 -39 -38 -44 -38 -108 l0
-67 -75 0 -75 0 2 223 3 222 2 -217 3 -218 65 0z m1465 200 l0 -200 65 0 65 0
2 198 3 197 58 1 57 1 -55 -4 -55 -4 0 -199 0 -200 -75 0 -75 0 0 200 0 199
-117 4 -118 3 123 2 122 2 0 -200z m818 193 c-43 -2 -113 -2 -155 0 -43 1 -8
3 77 3 85 0 120 -2 78 -3z m275 -8 c-3 -9 -8 -14 -10 -11 -3 3 -2 9 2 15 9 16
15 13 8 -4z m405 8 c-38 -2 -98 -2 -135 0 -38 2 -7 3 67 3 74 0 105 -1 68 -3z
m-918 -7 c0 -2 -8 -10 -17 -17 -16 -13 -17 -12 -4 4 13 16 21 21 21 13z m690
-9 c0 -2 -12 -14 -27 -28 l-28 -24 24 28 c23 25 31 32 31 24z m-2423 -35 c-26
-27 -26 -29 -9 -47 17 -19 17 -19 -6 0 l-22 18 27 29 c15 15 29 28 32 28 2 0
-7 -13 -22 -28z m608 -4 c14 -29 14 -31 0 -14 -8 11 -15 24 -15 29 0 4 -5 5
-12 1 -7 -4 -8 -3 -4 4 11 17 14 15 31 -20z m952 10 c-3 -8 -6 -5 -6 6 -1 11
2 17 5 13 3 -3 4 -12 1 -19z m-1187 -78 c-17 -33 -33 -60 -35 -60 -3 0 8 27
25 60 17 33 33 60 35 60 3 0 -8 -27 -25 -60z m1847 38 c-3 -8 -6 -5 -6 6 -1
11 2 17 5 13 3 -3 4 -12 1 -19z m-419 -311 l247 -2 -252 -3 -253 -2 2 168 2
167 3 -162 3 -163 248 -3z m229 301 c-3 -8 -6 -5 -6 6 -1 11 2 17 5 13 3 -3 4
-12 1 -19z m-1489 -23 c-6 -14 -13 -23 -15 -21 -5 5 15 46 22 46 3 0 -1 -11
-7 -25z m1819 -27 c-2 -13 -4 -5 -4 17 -1 22 1 32 4 23 2 -10 2 -28 0 -40z
m-337 23 c0 -6 -11 -23 -25 -38 l-26 -28 23 37 c25 40 28 43 28 29z m-1990
-26 c13 -14 21 -25 18 -25 -2 0 -15 11 -28 25 -13 14 -21 25 -18 25 2 0 15
-11 28 -25z m820 -55 c17 -33 28 -60 25 -60 -2 0 -18 27 -35 60 -17 33 -28 60
-25 60 2 0 18 -27 35 -60z m-969 3 l24 -28 -26 23 c-14 12 -29 19 -34 15 -4
-5 -5 -2 -1 5 9 16 9 16 37 -15z m2336 5 c-3 -8 -6 -5 -6 6 -1 11 2 17 5 13 3
-3 4 -12 1 -19z m177 -28 c6 -9 1 -5 -11 8 -13 13 -23 28 -23 35 0 7 6 3 12
-8 6 -11 16 -27 22 -35z m-2294 -10 c23 -27 40 -50 37 -50 -3 0 -24 23 -47 50
-23 28 -40 50 -37 50 3 0 24 -22 47 -50z m3143 33 l-162 -3 -4 -48 -3 -47 -2
53 -2 52 168 -2 167 -2 -162 -3z m-3277 -100 c33 -37 54 -64 48 -60 -15 9
-118 127 -111 127 2 0 31 -30 63 -67z m2479 39 c-3 -3 -11 0 -18 7 -9 10 -8
11 6 5 10 -3 15 -9 12 -12z m-2175 -52 c-17 -33 -33 -60 -35 -60 -3 0 8 27 25
60 17 33 33 60 35 60 3 0 -8 -27 -25 -60z m1763 43 c-62 -2 -165 -2 -230 0
-65 1 -14 3 112 3 127 0 180 -2 118 -3z m797 -10 c0 -13 -3 -14 -8 -6 -6 9
-58 13 -182 16 l-175 3 183 2 c168 2 182 1 182 -15z m-2107 0 c3 -5 -57 -7
-133 -5 l-139 3 -14 -28 c-8 -15 -26 -37 -38 -48 l-24 -20 21 25 c11 14 28 37
37 53 l17 27 135 0 c73 0 136 -3 138 -7z m-553 -38 c13 -14 21 -25 18 -25 -2
0 -15 11 -28 25 -13 14 -21 25 -18 25 2 0 15 -11 28 -25z m2126 -7 l29 -33
-32 29 c-31 28 -38 36 -30 36 2 0 16 -15 33 -32z m765 -1 c-10 -9 -11 -8 -5 6
3 10 9 15 12 12 3 -3 0 -11 -7 -18z m479 14 c0 -6 -11 -23 -25 -38 l-26 -28
23 37 c25 40 28 43 28 29z m-2725 -69 c11 -6 14 -12 7 -12 -7 0 -27 15 -45 33
-18 17 -21 22 -7 11 14 -12 34 -26 45 -32z m125 4 c0 -12 -5 -7 -19 24 -11 24
-11 24 3 6 9 -11 16 -24 16 -30z m1180 31 c0 -2 -10 -12 -22 -23 l-23 -19 19
23 c18 21 26 27 26 19z m930 -1 c0 -2 -8 -10 -17 -17 -16 -13 -17 -12 -4 4 13
16 21 21 21 13z m-2770 -49 c25 -2 -7 -3 -70 -3 -63 0 -86 1 -51 3 l63 4 -18
22 -19 22 25 -22 c15 -13 42 -23 70 -26z m2120 5 c-9 -3 -70 25 -70 33 0 2 18
-4 40 -13 21 -9 35 -18 30 -20z m-2345 10 c-3 -3 -11 0 -18 7 -9 10 -8 11 6 5
10 -3 15 -9 12 -12z m2715 3 c-7 -8 -17 -15 -23 -15 -6 0 -2 7 9 15 25 19 30
19 14 0z m-2405 -5 c-3 -5 -12 -10 -18 -10 -7 0 -6 4 3 10 19 12 23 12 15 0z
m2640 0 c-3 -5 -12 -10 -18 -10 -7 0 -6 4 3 10 19 12 23 12 15 0z m470 0 c-3
-5 -12 -10 -18 -10 -7 0 -6 4 3 10 19 12 23 12 15 0z m-2552 -17 c-13 -2 -35
-2 -50 0 -16 2 -5 4 22 4 28 0 40 -2 28 -4z m1735 0 c-42 -2 -114 -2 -160 0
-46 1 -11 3 77 3 88 0 125 -2 83 -3z m305 0 c-7 -2 -19 -2 -25 0 -7 3 -2 5 12
5 14 0 19 -2 13 -5z m470 0 c-7 -2 -19 -2 -25 0 -7 3 -2 5 12 5 14 0 19 -2 13
-5z m-3803 -364 c7 34 24 36 40 6 7 -14 20 -25 27 -25 11 0 9 7 -6 29 -27 37
-26 43 7 72 l27 24 -22 -26 c-28 -31 -28 -37 -3 -69 24 -31 25 -40 3 -40 -10
0 -27 12 -40 28 l-22 27 -1 -27 c0 -18 -5 -28 -15 -28 -12 0 -15 13 -13 68 l1
67 6 -65 c4 -38 9 -55 11 -41z m28 73 c15 12 16 11 3 -4 -20 -26 -31 -22 -30
10 2 24 2 24 6 4 4 -20 7 -21 21 -10z m102 24 c0 -2 -7 -7 -16 -10 -8 -3 -12
-2 -9 4 6 10 25 14 25 6z m79 -30 c-3 -3 -11 5 -18 17 -13 21 -12 21 5 5 10
-10 16 -20 13 -22z m116 23 c11 -16 1 -19 -13 -3 -7 8 -8 14 -3 14 5 0 13 -5
16 -11z m385 -24 c0 -5 -5 -3 -10 5 -5 8 -10 20 -10 25 0 6 5 3 10 -5 5 -8 10
-19 10 -25z m37 -32 c-2 -16 -4 -5 -4 22 0 28 2 40 4 28 2 -13 2 -35 0 -50z
m35 0 c2 -23 0 -39 -4 -37 -5 3 -7 29 -7 57 1 56 6 48 11 -20z m57 -49 c-6 -8
-17 -14 -23 -14 -6 0 -3 5 7 11 13 7 17 25 19 67 l2 57 3 -53 c3 -32 -1 -59
-8 -68z m232 99 c13 -16 12 -17 -3 -4 -10 7 -18 15 -18 17 0 8 8 3 21 -13z
m199 13 c0 -2 -8 -10 -17 -17 -16 -13 -17 -12 -4 4 13 16 21 21 21 13z m75 -6
c3 -6 -1 -7 -9 -4 -18 7 -21 14 -7 14 6 0 13 -4 16 -10z m167 -55 c-3 -53 -7
-65 -20 -64 -11 0 -12 2 -4 6 8 3 12 26 12 64 0 32 3 59 8 59 4 0 5 -29 4 -65z
m85 43 c-3 -8 -6 -5 -6 6 -1 11 2 17 5 13 3 -3 4 -12 1 -19z m138 3 c-3 -6
-19 -11 -35 -11 -15 0 -31 -6 -33 -12 -3 -8 -6 -6 -6 5 -1 13 7 17 34 17 20 0
35 5 35 12 0 6 3 9 6 5 3 -3 3 -10 -1 -16z m228 -100 l42 2 -35 7 -35 7 38 2
c27 1 37 -3 37 -14 0 -11 -12 -15 -50 -15 l-50 0 2 68 2 67 3 -62 4 -63 42 1z
m47 104 c0 -11 -10 -15 -37 -13 -37 1 -37 1 -5 5 17 2 32 8 32 14 0 5 2 9 5 9
3 0 5 -7 5 -15z m28 -5 c-7 -10 -14 -17 -17 -15 -4 4 18 35 25 35 2 0 -1 -9
-8 -20z m122 -100 c5 0 11 12 13 28 4 25 4 25 6 -5 1 -27 -3 -33 -19 -33 -18
0 -20 6 -18 68 l2 67 3 -62 c2 -35 8 -63 13 -63z m17 83 c-3 -10 -5 -4 -5 12
0 17 2 24 5 18 2 -7 2 -21 0 -30z m73 -28 c0 -56 -3 -65 -17 -64 -11 0 -13 3
-5 6 8 3 12 26 12 64 0 32 2 59 5 59 3 0 5 -29 5 -65z m100 24 c0 -22 -4 -38
-8 -35 -8 5 -4 76 4 76 2 0 4 -18 4 -41z m58 21 c-7 -10 -14 -17 -17 -15 -4 4
18 35 25 35 2 0 -1 -9 -8 -20z m87 10 c3 -6 -1 -7 -9 -4 -18 7 -21 14 -7 14 6
0 13 -4 16 -10z m78 -113 l42 -4 -47 -1 -48 -2 2 68 2 67 3 -62 4 -62 42 -4z
m77 119 c0 -2 -8 -10 -17 -17 -16 -13 -17 -12 -4 4 13 16 21 21 21 13z m80
-15 c22 -42 1 -111 -34 -111 -6 0 0 7 12 16 26 18 30 74 6 98 -8 9 -11 16 -5
16 6 0 15 -9 21 -19z m38 -1 c-7 -10 -14 -17 -17 -15 -4 4 18 35 25 35 2 0 -1
-9 -8 -20z m87 9 c11 -16 1 -19 -13 -3 -7 8 -8 14 -3 14 5 0 13 -5 16 -11z
m126 -12 c-10 -9 -11 -8 -5 6 3 10 9 15 12 12 3 -3 0 -11 -7 -18z m92 -99 c8
-5 6 -8 -5 -8 -16 0 -18 9 -16 68 l2 67 3 -60 c2 -33 10 -63 16 -67z m50 0 c8
-5 6 -8 -5 -8 -16 0 -18 9 -16 68 l2 67 3 -60 c2 -33 10 -63 16 -67z m27 102
c6 -11 8 -20 6 -20 -3 0 -10 9 -16 20 -6 11 -8 20 -6 20 3 0 10 -9 16 -20z
m60 -45 c0 -57 -2 -65 -19 -65 -10 0 -22 8 -26 18 -5 14 -4 15 6 5 23 -23 29
-14 29 47 0 33 2 60 5 60 3 0 5 -29 5 -65z m240 6 c0 -38 4 -61 13 -64 7 -3 5
-6 -5 -6 -15 -1 -18 8 -18 48 0 27 -3 56 -6 65 -3 9 -1 16 5 16 7 0 11 -23 11
-59z m150 12 c0 -25 -2 -44 -4 -42 -8 10 -13 89 -5 89 5 0 9 -21 9 -47z m97
-30 c-2 -16 -4 -3 -4 27 0 30 2 43 4 28 2 -16 2 -40 0 -55z m223 62 c0 -10
-10 -15 -34 -15 -19 0 -37 -5 -39 -10 -3 -6 -4 -5 -3 2 1 7 17 14 34 16 18 2
32 7 32 13 0 5 2 9 5 9 3 0 5 -7 5 -15z m-2947 -39 c-5 -37 -2 -46 18 -60 13
-9 19 -16 15 -16 -34 0 -57 61 -40 104 10 26 12 18 7 -28z m1347 24 c6 -11 8
-20 6 -20 -3 0 -10 9 -16 20 -6 11 -8 20 -6 20 3 0 10 -9 16 -20z m-2131 -34
c-1 -20 -2 -20 -6 -1 -3 11 -10 27 -17 35 -10 13 -9 13 7 1 9 -7 16 -23 16
-35z m94 11 c18 -4 17 -5 -5 -6 -23 -1 -28 3 -27 22 1 15 3 17 6 5 2 -9 14
-19 26 -21z m132 26 c-16 -3 -33 -10 -37 -16 -5 -8 -8 -6 -8 6 0 13 8 17 38
16 34 -2 34 -2 7 -6z m66 -20 c-12 -20 -14 -14 -5 12 4 9 9 14 11 11 3 -2 0
-13 -6 -23z m429 -73 c5 0 11 24 13 53 l3 52 2 -57 c2 -52 0 -58 -18 -58 -18
0 -20 6 -18 58 l2 57 3 -52 c2 -29 8 -53 13 -53z m93 85 c-3 -9 -8 -14 -10
-11 -3 3 -2 9 2 15 9 16 15 13 8 -4z m325 -10 c-3 -3 -9 2 -12 12 -6 14 -5 15
5 6 7 -7 10 -15 7 -18z m95 -77 c8 -5 6 -8 -5 -8 -15 0 -18 9 -16 58 l2 57 3
-50 c3 -27 10 -53 16 -57z m427 2 c5 0 11 24 13 53 l3 52 2 -57 c2 -52 0 -58
-18 -58 -18 0 -20 6 -18 58 l2 57 3 -52 c2 -29 8 -53 13 -53z m582 88 c-5 -7
-12 -22 -15 -33 -5 -20 -5 -20 -6 1 0 11 4 25 11 32 16 16 23 15 10 0z m276
-13 c-3 -3 -9 2 -12 12 -6 14 -5 15 5 6 7 -7 10 -15 7 -18z m162 -46 c0 -36
-2 -39 -27 -38 -24 2 -25 2 -5 6 17 3 22 11 22 34 0 25 -3 29 -27 28 -18 -1
-22 -3 -10 -6 10 -3 17 -12 15 -21 -4 -19 -36 -28 -50 -14 -6 6 0 8 16 5 15
-3 26 -1 26 6 0 6 -7 11 -15 11 -8 0 -15 7 -15 15 0 8 7 15 16 15 10 0 14 5
10 15 -5 13 -2 13 19 -1 20 -13 25 -25 25 -55z m30 51 c6 -11 8 -20 6 -20 -3
0 -10 9 -16 20 -6 11 -8 20 -6 20 3 0 10 -9 16 -20z m30 5 c7 -9 8 -15 2 -15
-5 0 -12 7 -16 15 -3 8 -4 15 -2 15 2 0 9 -7 16 -15z m334 0 c3 -8 1 -15 -4
-15 -6 0 -10 7 -10 15 0 8 2 15 4 15 2 0 6 -7 10 -15z m54 -14 c-1 -4 3 -14 7
-25 9 -21 -4 -48 -26 -53 -8 -3 -7 0 4 7 9 6 17 20 17 31 0 11 -8 23 -17 27
-10 4 -19 15 -19 24 -1 14 2 15 17 5 10 -6 17 -13 17 -16z m82 -26 c0 -46 -3
-55 -17 -54 -11 0 -13 3 -5 6 7 3 12 24 12 54 0 27 2 49 5 49 3 0 5 -25 5 -55z
m150 0 c0 -46 -3 -55 -17 -54 -11 0 -13 3 -5 6 7 3 12 24 12 54 0 27 2 49 5
49 3 0 5 -25 5 -55z m213 -47 c8 -5 6 -8 -5 -8 -15 0 -18 9 -16 58 l2 57 3
-50 c3 -27 10 -53 16 -57z m-523 67 c14 -19 14 -19 -2 -6 -10 7 -18 18 -18 24
0 6 1 8 3 6 1 -2 9 -13 17 -24z m-2722 -10 c-3 -3 -9 2 -12 12 -6 14 -5 15 5
6 7 -7 10 -15 7 -18z m172 4 c0 -6 -4 -7 -10 -4 -5 3 -10 11 -10 16 0 6 5 7
10 4 6 -3 10 -11 10 -16z m397 -16 c-3 -10 -5 -4 -5 12 0 17 2 24 5 18 2 -7 2
-21 0 -30z m207 -21 c10 -2 23 2 28 10 8 10 9 10 5 -2 -5 -20 -34 -25 -52 -10
-8 7 -14 24 -14 39 1 25 2 25 8 -4 4 -18 14 -31 25 -33z m833 52 c-3 -3 -12
-4 -19 -1 -8 3 -5 6 6 6 11 1 17 -2 13 -5z m183 -18 c10 -13 10 -17 3 -12 -9
5 -13 -2 -13 -23 0 -23 -4 -31 -17 -30 -11 0 -13 3 -5 6 7 3 12 22 12 46 0 22
1 38 3 36 1 -2 9 -13 17 -23z m307 -8 c-3 -7 -5 -2 -5 12 0 14 2 19 5 13 2 -7
2 -19 0 -25z m63 -29 c21 -6 22 -7 5 -8 -28 -1 -45 18 -44 49 1 23 2 23 8 -5
4 -20 14 -31 31 -36z m-1443 29 c-3 -8 -6 -5 -6 6 -1 11 2 17 5 13 3 -3 4 -12
1 -19z m343 -11 c0 -5 -4 -5 -10 -2 -5 3 -10 14 -10 23 0 15 2 15 10 2 5 -8
10 -19 10 -23z m467 11 c-3 -8 -6 -5 -6 6 -1 11 2 17 5 13 3 -3 4 -12 1 -19z
m730 0 c-3 -8 -6 -5 -6 6 -1 11 2 17 5 13 3 -3 4 -12 1 -19z m373 2 c6 -11 8
-20 6 -20 -3 0 -10 9 -16 20 -6 11 -8 20 -6 20 3 0 10 -9 16 -20z m28 -5 c-3
-3 -9 2 -12 12 -6 14 -5 15 5 6 7 -7 10 -15 7 -18z m-2044 -29 c-3 -15 -13
-26 -23 -25 -10 0 -11 2 -3 6 6 2 12 19 12 36 0 22 3 28 11 20 5 -5 7 -22 3
-37z m36 34 c0 -5 -4 -10 -10 -10 -5 0 -10 5 -10 10 0 6 5 10 10 10 6 0 10 -4
10 -10z m43 -52 c8 -5 7 -8 -4 -8 -19 0 -31 34 -21 58 5 13 8 9 10 -13 2 -16
9 -33 15 -37z m-935 45 c-11 -3 -18 -14 -18 -29 0 -16 -5 -24 -17 -23 -11 0
-13 3 -5 6 6 2 12 16 12 29 0 19 5 24 23 23 16 -1 18 -2 5 -6z m56 -25 c5 -24
3 -28 -14 -28 -11 0 -20 4 -20 10 0 5 6 7 14 4 10 -4 12 2 8 23 -6 35 3 28 12
-9z m82 2 c20 0 42 -7 50 -15 14 -13 8 -15 -53 -13 l-68 1 50 7 c46 6 47 7 13
8 -33 2 -38 5 -37 25 1 16 2 18 6 5 3 -13 15 -18 39 -18z m630 2 c-17 -16 -18
-16 -5 5 7 12 15 20 18 17 3 -2 -3 -12 -13 -22z m298 -13 c-9 -10 -22 -19 -28
-19 -6 0 0 7 12 16 12 8 22 23 23 32 0 11 2 13 6 4 3 -7 -3 -22 -13 -33z m362
11 c24 0 34 -5 34 -15 0 -12 -12 -15 -52 -13 l-53 1 50 7 c46 6 47 7 13 8 -33
2 -38 5 -37 25 1 16 2 18 6 5 3 -13 15 -18 39 -18z m401 10 c-27 -22 -43 -25
-51 -11 -4 5 3 7 14 4 12 -3 22 1 26 11 3 9 13 16 21 16 11 0 7 -6 -10 -20z
m843 -10 c0 -22 -5 -30 -17 -29 -11 0 -13 3 -5 6 6 2 12 16 12 29 0 13 2 24 5
24 3 0 5 -13 5 -30z m348 7 c2 -9 -1 -17 -7 -17 -6 0 -8 6 -5 14 3 8 -2 16
-13 20 -15 4 -15 5 2 3 11 -1 21 -10 23 -20z m335 3 c3 -11 1 -18 -4 -14 -5 3
-9 12 -9 20 0 20 7 17 13 -6z m253 -10 c24 0 34 -5 34 -15 0 -12 -12 -15 -52
-13 l-53 1 50 7 c47 6 48 6 15 11 -22 2 -35 10 -36 19 0 9 1 10 3 3 3 -7 20
-13 39 -13z m-3776 -15 c0 -5 -5 -3 -10 5 -5 8 -10 20 -10 25 0 6 5 3 10 -5 5
-8 10 -19 10 -25z m50 18 c16 4 20 3 13 -4 -15 -15 -45 -7 -50 11 -4 12 -3 13
5 1 6 -8 19 -12 32 -8z m2315 -2 c-7 -13 -42 -15 -49 -2 -3 4 6 6 19 3 16 -3
25 0 25 9 0 7 3 10 6 6 3 -3 3 -10 -1 -16z m26 -8 c-12 -20 -14 -14 -5 12 4 9
9 14 11 11 3 -2 0 -13 -6 -23z m750 -13 c7 0 9 -3 6 -6 -10 -10 -37 16 -36 35
0 11 3 9 9 -6 5 -13 15 -23 21 -23z m-3051 5 c-7 -8 -16 -15 -21 -15 -5 0 -1
8 9 18 20 22 31 19 12 -3z m330 21 c0 -2 -11 -6 -25 -8 -14 -3 -25 -1 -25 3 0
5 11 9 25 9 14 0 25 -2 25 -4z m155 -3 c-11 -3 -24 -11 -28 -19 -9 -16 -37
-19 -37 -4 0 5 6 7 14 4 7 -3 16 2 19 10 4 9 17 15 29 15 21 -1 21 -2 3 -6z
m589 -32 c-5 -6 -34 20 -34 30 0 5 8 1 18 -8 10 -10 17 -20 16 -22z m780 0
c-5 -6 -34 20 -34 30 0 5 8 1 18 -8 10 -10 17 -20 16 -22z m66 14 c-7 -8 -16
-15 -21 -15 -5 0 -1 8 9 18 20 22 31 19 12 -3z m304 -14 c-5 -6 -34 20 -34 30
0 5 8 1 18 -8 10 -10 17 -20 16 -22z m360 0 c-5 -6 -34 20 -34 30 0 5 8 1 18
-8 10 -10 17 -20 16 -22z m-2009 0 c-6 -5 -25 10 -25 20 0 5 6 4 14 -3 8 -7
12 -15 11 -17z m295 14 c-7 -8 -17 -15 -23 -15 -6 0 -2 7 9 15 25 19 30 19 14
0z m1528 8 c-10 -2 -26 -2 -35 0 -10 3 -2 5 17 5 19 0 27 -2 18 -5z m56 -22
c-2 -3 -12 3 -22 13 -16 17 -16 18 5 5 12 -7 20 -15 17 -18z m971 0 c-6 -5
-25 10 -25 20 0 5 6 4 14 -3 8 -7 12 -15 11 -17z m-3055 3 c0 -2 -9 -4 -20 -4
-11 0 -20 4 -20 9 0 5 9 7 20 4 11 -3 20 -7 20 -9z m170 4 c0 -4 -9 -8 -20 -8
-11 0 -20 4 -20 8 0 4 9 8 20 8 11 0 20 -4 20 -8z m440 0 c0 -4 -9 -8 -20 -8
-11 0 -20 4 -20 8 0 4 9 8 20 8 11 0 20 -4 20 -8z m401 -6 c-7 -2 -18 1 -23 6
-8 8 -4 9 13 5 13 -4 18 -8 10 -11z m780 0 c-7 -2 -18 1 -23 6 -8 8 -4 9 13 5
13 -4 18 -8 10 -11z m1324 8 c-3 -5 -12 -10 -18 -10 -7 0 -6 4 3 10 19 12 23
12 15 0z m-3552 -227 c-69 -4 -72 -5 -76 -31 -4 -25 -4 -24 -6 6 l-1 32 78 -2
77 -2 -72 -3z m247 -57 l0 -65 33 -4 c32 -4 32 -4 -3 -3 l-35 1 -3 63 c-3 61
-3 62 -32 62 l-30 0 0 -165 0 -165 30 0 29 0 3 73 3 72 40 1 40 1 -37 -4 -38
-4 0 -75 0 -74 -40 0 -40 0 0 175 0 175 40 0 40 0 0 -64z m1000 -26 l0 -90 40
0 c39 0 40 -1 40 -35 0 -34 -1 -35 -40 -35 l-40 0 0 -130 0 -130 -40 0 -40 0
0 255 0 255 40 0 40 0 0 -90z m829 58 c-2 -30 -2 -31 -6 -6 -4 26 -7 27 -76
31 l-72 3 78 2 77 2 -1 -32z m159 25 c-10 -2 -28 -2 -40 0 -13 2 -5 4 17 4 22
1 32 -1 23 -4z m530 0 c-10 -2 -28 -2 -40 0 -13 2 -5 4 17 4 22 1 32 -1 23 -4z
m745 0 c-7 -2 -19 -2 -25 0 -7 3 -2 5 12 5 14 0 19 -2 13 -5z m64 1 c-3 -3
-12 -4 -19 -1 -8 3 -5 6 6 6 11 1 17 -2 13 -5z m211 -186 l-3 -193 -2 188 -3
187 -30 0 -29 0 -3 -137 -3 -138 -55 -1 -55 -1 53 4 52 4 0 140 0 139 40 0 40
0 -2 -192z m-2040 145 c-1 -37 -1 -37 -5 -5 l-4 32 -154 0 -154 0 -4 -72 -3
-73 -2 78 -2 77 165 0 165 0 -2 -37z m790 30 c-10 -2 -28 -2 -40 0 -13 2 -5 4
17 4 22 1 32 -1 23 -4z m932 2 c0 -2 -10 -9 -22 -15 -22 -11 -22 -10 -4 4 21
17 26 19 26 11z m160 -20 c13 -14 22 -26 19 -28 -2 -1 -16 10 -31 25 -15 15
-23 28 -19 28 4 0 18 -11 31 -25z m-2882 -37 l-2 -53 -3 47 -4 48 -162 3 -162
3 168 2 167 2 -2 -52z m1700 36 c-15 -8 -34 -27 -42 -42 -9 -15 -15 -21 -16
-14 0 17 55 72 72 72 7 -1 1 -7 -14 -16z m153 -5 l24 -20 -30 17 c-39 24 -40
24 -28 24 6 0 21 -9 34 -21z m577 14 c-49 -2 -127 -2 -175 0 -49 1 -9 3 87 3
96 0 136 -2 88 -3z m-2301 -70 c-3 -10 -5 -2 -5 17 0 19 2 27 5 18 2 -10 2
-26 0 -35z m1821 40 c-10 -2 -28 -2 -40 0 -13 2 -5 4 17 4 22 1 32 -1 23 -4z
m849 1 c-3 -3 -12 -4 -19 -1 -8 3 -5 6 6 6 11 1 17 -2 13 -5z m-49 -18 c-7 -8
-15 -12 -17 -11 -5 6 10 25 20 25 5 0 4 -6 -3 -14z m91 -25 c-2 -6 -10 2 -17
17 -11 25 -11 25 4 10 9 -9 15 -21 13 -27z m-1062 23 c-3 -3 -12 -4 -19 -1 -8
3 -5 6 6 6 11 1 17 -2 13 -5z m111 -19 c-3 -3 -9 2 -12 12 -6 14 -5 15 5 6 7
-7 10 -15 7 -18z m779 -12 c-3 -10 -5 -4 -5 12 0 17 2 24 5 18 2 -7 2 -21 0
-30z m-3536 -23 c21 0 25 -15 7 -26 -7 -4 -8 -3 -4 4 5 8 0 12 -13 12 -17 0
-21 6 -20 33 2 30 2 30 6 5 3 -20 10 -28 24 -28z m798 18 c-2 -30 -2 -31 -6
-6 l-4 27 -127 4 -127 3 133 2 132 2 -1 -32z m818 -5 c-3 -10 -5 -4 -5 12 0
17 2 24 5 18 2 -7 2 -21 0 -30z m643 2 l0 -35 -52 2 -53 2 48 3 c42 4 47 7 47
29 l0 24 -130 0 -130 0 0 -25 c0 -23 3 -25 50 -25 41 0 50 -3 49 -17 0 -11 -3
-13 -6 -5 -3 7 -24 12 -54 12 l-49 0 0 35 0 35 140 0 140 0 0 -35z m350 31 c0
-2 -8 -10 -17 -17 -16 -13 -17 -12 -4 4 13 16 21 21 21 13z m71 -13 c13 -16
12 -17 -3 -4 -17 13 -22 21 -14 21 2 0 10 -8 17 -17z m561 10 c-40 -2 -103 -2
-140 0 -37 2 -4 3 73 3 77 0 107 -2 67 -3z m535 -25 c-3 -7 -5 -2 -5 12 0 14
2 19 5 13 2 -7 2 -19 0 -25z m-400 -40 c-2 -13 -4 -5 -4 17 -1 22 1 32 4 23 2
-10 2 -28 0 -40z m-2220 5 c-3 -10 -5 -4 -5 12 0 17 2 24 5 18 2 -7 2 -21 0
-30z m1646 30 c-24 -3 -33 -9 -33 -23 0 -14 9 -20 33 -23 31 -4 31 -4 -5 -5
-36 -2 -38 0 -38 28 0 28 2 30 38 28 36 -1 36 -1 5 -5z m852 -16 l30 -4 -31
-2 c-20 0 -37 6 -45 17 -12 15 -12 15 1 5 8 -6 29 -13 45 -16z m-1148 -24 c-3
-10 -5 -4 -5 12 0 17 2 24 5 18 2 -7 2 -21 0 -30z m70 5 c-3 -7 -5 -2 -5 12 0
14 2 19 5 13 2 -7 2 -19 0 -25z m120 0 c-3 -7 -5 -2 -5 12 0 14 2 19 5 13 2
-7 2 -19 0 -25z m-2450 15 c-12 -3 -16 -11 -12 -31 4 -23 4 -24 -4 -7 -16 33
-12 45 12 44 16 -1 18 -2 4 -6z m1633 -28 l0 -35 -72 2 -73 2 68 3 c67 4 67 4
67 33 0 17 2 30 5 30 3 0 5 -16 5 -35z m1704 -6 c17 -10 26 -19 20 -19 -17 0
-64 40 -63 53 0 8 3 7 6 -1 3 -8 19 -22 37 -33z m163 5 c-15 -13 -36 -24 -45
-24 -9 1 -2 7 16 15 18 8 35 21 38 30 4 9 9 13 13 10 3 -4 -7 -18 -22 -31z
m-3647 12 c0 -2 -7 -7 -16 -10 -8 -3 -12 -2 -9 4 6 10 25 14 25 6z m69 -30
c-3 -3 -11 5 -18 17 -13 21 -12 21 5 5 10 -10 16 -20 13 -22z m3138 -3 c-3
-10 -5 -4 -5 12 0 17 2 24 5 18 2 -7 2 -21 0 -30z m-1140 -5 c-3 -7 -5 -2 -5
12 0 14 2 19 5 13 2 -7 2 -19 0 -25z m-2170 -30 c-2 -13 -4 -5 -4 17 -1 22 1
32 4 23 2 -10 2 -28 0 -40z m2597 36 c3 -8 2 -12 -4 -9 -6 3 -10 10 -10 16 0
14 7 11 14 -7z m-144 -29 c0 -35 0 -35 -42 -33 l-43 1 38 4 c31 4 37 8 37 28
0 20 -6 24 -37 28 l-38 4 43 1 c42 2 42 2 42 -33z m-792 18 c-10 -2 -28 -2
-40 0 -13 2 -5 4 17 4 22 1 32 -1 23 -4z m2009 1 c-3 -3 -12 -4 -19 -1 -8 3
-5 6 6 6 11 1 17 -2 13 -5z m-2959 -11 l-228 -3 0 -25 c0 -25 0 -25 96 -25
l95 0 -3 -27 c-3 -27 -6 -28 -65 -31 -59 -3 -63 -4 -63 -27 0 -24 0 -24 128
-28 l127 -3 -132 -2 -133 -2 0 35 0 35 65 0 c58 0 65 2 65 20 0 19 -7 20 -95
20 l-95 0 0 35 0 35 233 -2 232 -3 -227 -2z m2659 -15 c-3 -8 -6 -5 -6 6 -1
11 2 17 5 13 3 -3 4 -12 1 -19z m410 16 c-3 -3 -12 -4 -19 -1 -8 3 -5 6 6 6
11 1 17 -2 13 -5z m30 -26 c-3 -7 -5 -2 -5 12 0 14 2 19 5 13 2 -7 2 -19 0
-25z m-2623 6 c3 -8 2 -12 -4 -9 -6 3 -10 10 -10 16 0 14 7 11 14 -7z m1005
-14 c11 -24 11 -24 -3 -6 -9 11 -16 24 -16 30 0 12 5 7 19 -24z m401 -19 c17
-7 20 -10 8 -10 -10 -1 -30 11 -46 27 -15 15 -19 19 -7 10 11 -9 31 -21 45
-27z m140 24 c-13 -14 -27 -25 -32 -25 -9 0 42 49 51 50 3 0 -6 -11 -19 -25z
m567 3 c-3 -8 -6 -5 -6 6 -1 11 2 17 5 13 3 -3 4 -12 1 -19z m366 15 c-29 -2
-78 -2 -110 0 -32 2 -8 3 52 3 61 0 87 -1 58 -3z m-3583 -28 c14 -19 14 -19
-2 -6 -10 7 -18 18 -18 24 0 6 1 8 3 6 1 -2 9 -13 17 -24z m1625 -35 l224 0 4
33 4 32 1 -36 2 -36 -117 -5 c-65 -3 -171 -3 -235 0 l-118 5 2 36 1 36 4 -32
4 -33 224 0z m356 37 c-10 -9 -11 -8 -5 6 3 10 9 15 12 12 3 -3 0 -11 -7 -18z
m757 16 c-10 -2 -28 -2 -40 0 -13 2 -5 4 17 4 22 1 32 -1 23 -4z m-2648 -7 c0
-2 -8 -10 -17 -17 -16 -13 -17 -12 -4 4 13 16 21 21 21 13z m70 -5 c0 -6 -11
-23 -25 -38 l-26 -28 23 37 c25 40 28 43 28 29z m820 4 c0 -3 -21 -28 -46 -56
-47 -49 -47 -49 -28 -72 l18 -22 -23 22 -24 22 49 55 c50 56 54 60 54 51z
m2293 -12 c-7 -2 -19 -2 -25 0 -7 3 -2 5 12 5 14 0 19 -2 13 -5z m-2123 -38
c19 -19 32 -35 29 -35 -3 0 -20 16 -39 35 -19 19 -32 35 -29 35 3 0 20 -16 39
-35z m-1103 19 c-3 -3 -12 -4 -19 -1 -8 3 -5 6 6 6 11 1 17 -2 13 -5z m711 -1
c-89 -3 -98 -6 -98 -23 0 -16 9 -20 63 -23 l62 -3 -63 -2 c-65 -2 -82 8 -68
43 4 12 24 15 103 13 l98 -2 -97 -3z m336 -50 l54 -58 23 20 24 19 -23 -24
-23 -25 -56 58 c-54 57 -56 57 -70 37 -8 -12 -26 -33 -40 -48 -13 -15 -7 -3
13 26 21 28 40 52 42 52 1 0 27 -26 56 -57z m876 53 c0 -2 -8 -10 -17 -17 -16
-13 -17 -12 -4 4 13 16 21 21 21 13z m84 -11 c3 -8 2 -14 -2 -12 -4 1 -22 -14
-40 -33 l-33 -35 33 47 c18 26 34 47 34 47 1 1 4 -6 8 -14z m1619 8 c-7 -2
-19 -2 -25 0 -7 3 -2 5 12 5 14 0 19 -2 13 -5z m-3722 -20 c13 -16 12 -17 -3
-4 -10 7 -18 15 -18 17 0 8 8 3 21 -13z m2205 -15 l29 -33 -32 29 c-31 28 -38
36 -30 36 2 0 16 -15 33 -32z m1444 -8 c0 -29 -4 -40 -15 -40 -11 0 -15 -11
-15 -40 l0 -40 130 0 130 0 -2 -37 c-1 -37 -1 -37 -5 -6 l-4 32 -127 3 -127 3
-3 38 c-3 33 -6 37 -32 37 -28 0 -29 -2 -33 -52 l-3 -53 -2 57 -2 57 50 7 c49
6 50 7 50 40 0 19 2 34 5 34 3 0 5 -18 5 -40z m-2045 -2 c-11 -6 -27 -16 -35
-22 -9 -6 -5 -1 8 12 13 12 28 22 35 22 7 0 3 -6 -8 -12z m605 -71 c13 -5 13
-6 0 -6 -9 -1 -36 20 -60 47 l-45 47 45 -41 c25 -23 52 -44 60 -47z m-2137 66
c-7 -2 -19 -2 -25 0 -7 3 -2 5 12 5 14 0 19 -2 13 -5z m50 0 c-7 -2 -19 -2
-25 0 -7 3 -2 5 12 5 14 0 19 -2 13 -5z m1662 -13 c10 -11 16 -20 13 -20 -3 0
-13 9 -23 20 -10 11 -16 20 -13 20 3 0 13 -9 23 -20z m167 -2 c-9 -9 -7 -17
10 -35 21 -22 22 -22 42 -5 l21 17 -19 -23 -19 -22 -29 26 c-21 21 -25 31 -17
41 6 7 14 13 17 13 3 0 1 -5 -6 -12z m625 -145 c9 -7 12 -13 7 -13 -25 0 -34
27 -32 99 l2 76 3 -75 c3 -55 8 -78 20 -87z m-341 119 c-17 -16 -18 -16 -5 5
7 12 15 20 18 17 3 -2 -3 -12 -13 -22z m914 -57 l0 -85 30 0 30 0 0 85 0 85
103 -2 102 -2 -97 -3 -98 -4 0 -84 0 -85 -40 0 -40 0 0 85 0 84 -97 4 -98 3
103 2 102 2 0 -85z m-3118 -3 c3 -34 1 -57 -4 -50 -4 7 -7 40 -7 73 1 73 6 62
11 -23z m65 11 c-2 -16 -4 -5 -4 22 0 28 2 40 4 28 2 -13 2 -35 0 -50z m3710
35 c-3 -7 -5 -2 -5 12 0 14 2 19 5 13 2 -7 2 -19 0 -25z m-2114 15 c-7 -2 -21
-2 -30 0 -10 3 -4 5 12 5 17 0 24 -2 18 -5z m38 -76 c-10 -9 -11 -8 -5 6 3 10
9 15 12 12 3 -3 0 -11 -7 -18z m-167 -32 l17 -30 -20 24 c-12 13 -21 28 -21
34 0 12 0 11 24 -28z m237 12 c-10 -9 -11 -8 -5 6 3 10 9 15 12 12 3 -3 0 -11
-7 -18z m1079 -12 l0 -35 -142 2 -143 2 138 3 137 4 0 29 c0 17 2 30 5 30 3 0
5 -16 5 -35z m-1090 -10 c0 -2 -10 -9 -22 -15 -22 -11 -22 -10 -4 4 21 17 26
19 26 11z m-1512 -22 c-38 -2 -98 -2 -135 0 -38 2 -7 3 67 3 74 0 105 -1 68
-3z m540 0 c-10 -2 -28 -2 -40 0 -13 2 -5 4 17 4 22 1 32 -1 23 -4z m919 -9
c-3 -3 -12 -4 -19 -1 -8 3 -5 6 6 6 11 1 17 -2 13 -5z m591 -1 c-10 -2 -28 -2
-40 0 -13 2 -5 4 17 4 22 1 32 -1 23 -4z"/>
<path d="M1410 265 l0 -245 30 0 30 0 0 130 0 130 40 0 c36 0 40 3 40 24 0 21
-5 25 -37 28 l-38 3 -3 88 -3 87 -29 0 -30 0 0 -245z"/>
</g>
</svg>
